<svg width="397" height="136" viewBox="0 0 397 136" fill="none" xmlns="http://www.w3.org/2000/svg">
<path d="M4.33813 107.789C2.37552 107.803 1.2197 107.3 0.870679 106.279C0.86234 105.169 4.49436 100.193 11.7668 91.3484C19.0391 82.5042 27.0314 72.9291 35.7435 62.6234C44.455 52.2322 52.4402 41.7186 59.6991 31.0824C66.9573 20.3608 70.5701 12.8241 70.5374 8.47227C70.5169 5.74168 69.0987 4.38697 66.2827 4.40814C61.6749 4.44277 56.8203 5.71664 51.7191 8.22972C46.6172 10.6575 41.8197 13.851 37.3267 17.8102C32.9183 21.6834 28.6415 26.025 24.4962 30.835C20.3509 35.645 16.8453 40.4075 13.9793 45.1225C7.48582 55.4116 4.25671 62.9027 4.29199 67.5959C4.31059 70.0705 5.34386 71.3001 7.3918 71.2847C10.2077 71.2636 14.755 68.84 21.0335 64.014C27.3121 59.188 32.8654 54.3674 37.6933 49.5523L44.9362 42.4577C45.1055 42.2857 45.3609 42.1985 45.7022 42.1959C46.1289 42.1927 46.3432 42.3191 46.3451 42.5751L46.0929 43.089C45.3307 43.8628 44.2721 44.9374 42.9171 46.313C41.6474 47.6879 39.1908 50.0958 35.5472 53.5366C31.903 56.8921 28.4695 59.9046 25.2468 62.5743C22.1088 65.1579 18.7132 67.5302 15.06 69.691C11.4068 71.8519 8.51362 72.9403 6.38034 72.9564C3.30843 72.9795 1.75868 71.1564 1.7311 67.4872C1.70287 63.7326 2.73551 59.2021 4.82901 53.8955C7.0072 48.503 10.1224 42.8901 14.1747 37.0568C18.3123 31.2228 22.9218 25.7267 28.0031 20.5683C33.1698 15.4094 39.1113 11.1406 45.8274 7.762C52.5435 4.38342 59.2295 2.66911 65.8853 2.61907C67.5919 2.60624 69.2607 3.23372 70.8916 4.50149C72.5218 5.68394 73.3466 7.55512 73.3658 10.115C73.3844 12.5896 72.4705 15.8819 70.624 19.9919C68.8629 24.1013 66.1682 28.9004 62.54 34.3891C58.9118 39.8779 55.5358 44.8527 52.4119 49.3137C49.3727 53.6886 45.2743 59.0529 40.1165 65.4066C35.0442 71.7595 31.4933 76.181 29.464 78.671C27.434 81.0757 24.4317 84.6823 20.457 89.491C20.543 89.5757 20.9254 89.3595 21.6042 88.8424C57.7076 55.6314 78.0901 36.9176 82.7519 32.7011C87.4137 28.4846 89.9136 26.1618 90.2517 25.7326C90.6752 25.3027 90.9716 25.0018 91.141 24.8298C91.8185 24.1421 92.6692 23.7943 93.6932 23.7866C94.8025 23.7783 95.361 24.2861 95.3687 25.3101C95.3879 27.87 91.6821 34.3834 84.2513 44.8502C76.9057 55.3164 69.5567 65.3132 62.2041 74.8408C54.8515 84.3683 51.1765 89.3028 51.1791 89.6441L51.308 89.7711C56.4792 85.2094 67.0721 75.3589 83.0868 60.2194C99.1861 44.9939 113.211 31.8748 125.16 20.862C137.195 9.84855 143.895 4.33669 145.26 4.32643C146.199 4.31937 146.673 4.91317 146.682 6.1078C146.699 8.41173 144.767 12.5224 140.886 18.4397C137.091 24.3564 130.248 33.6668 120.36 46.3708C119.937 46.886 113.087 55.2151 99.811 71.358C70.5514 106.822 55.9421 127.284 55.9832 132.745C55.9858 133.087 56.243 133.255 56.755 133.251C57.3523 133.247 59.4782 132.25 63.1327 130.259C66.8732 128.354 69.4639 126.756 70.9049 125.465C72.3459 124.174 73.1944 123.528 73.4504 123.526C73.7064 123.524 73.8357 123.693 73.8382 124.035C73.8414 124.461 73.7583 124.761 73.589 124.933C72.6593 126.134 69.7728 128.119 64.9295 130.886C60.1715 133.652 57.1525 135.04 55.8725 135.05C54.5926 135.06 53.9484 134.51 53.9401 133.401C53.8997 128.025 58.3937 118.519 67.4221 104.882C81.5967 83.3566 98.7963 61.2533 119.021 38.5727C121.559 35.6522 126.252 29.8994 133.1 21.3143C139.947 12.7293 143.369 8.09543 143.364 7.41278C143.362 7.24212 143.319 7.15711 143.234 7.15775C142.722 7.1616 127.043 21.5305 96.1963 50.2646C65.4354 78.9979 45.5225 97.7508 36.4575 106.523C35.4413 107.555 34.4638 108.074 33.5252 108.081C31.0506 108.1 29.811 107.811 29.8065 107.213C29.802 106.616 30.3917 105.587 31.5754 104.128C32.7585 102.583 39.0993 94.6844 50.5978 80.4322C77.6529 46.8625 91.1743 29.2671 91.1621 27.6458L91.0332 27.5187C90.2678 27.8658 79.1645 37.9336 57.7233 57.722C26.3651 86.4599 8.57004 103.149 4.33813 107.789ZM136.113 64.8129C134.662 64.8238 133.932 64.1893 133.922 62.9093C133.912 61.544 134.543 60.2593 135.814 59.055C137.084 57.8507 138.147 57.2454 139 57.239C139.939 57.2319 140.623 57.4828 141.054 57.9916C141.569 58.4997 141.83 59.0951 141.835 59.7778C141.84 60.4604 141.251 61.4889 140.066 62.8631C138.881 64.1521 137.563 64.802 136.113 64.8129ZM104.034 105.503C104.956 103.363 108.674 98.4708 115.188 90.8269C121.786 83.1825 126.78 77.6408 130.167 74.2019C130.674 73.5154 130.927 73.0441 130.925 72.7881C130.922 72.4468 130.579 72.2361 129.896 72.1559L126.95 71.922C126.267 71.9271 125.63 72.2733 125.038 72.9604C119.279 78.8919 113.824 85.3757 108.671 92.412C103.604 99.3623 101.076 103.691 101.089 105.397C101.101 107.019 101.619 107.825 102.643 107.818C104.008 107.807 106.773 106.677 110.938 104.427C115.102 102.092 118.924 99.7591 122.406 97.4289L127.627 93.9335L127.487 92.2705C113.817 101.419 106.214 105.999 104.678 106.01C104.251 106.014 104.036 105.845 104.034 105.503ZM140.611 93.8359C140.186 94.0951 139.677 94.4403 139.083 94.8714L138.687 93.3384C148.284 87.1221 156.098 82.2845 162.131 78.8257L165.571 76.7518C166.844 75.7182 168.243 74.513 169.768 73.1362C172.992 70.5518 174.689 69.3017 174.86 69.3858C175.287 69.3826 175.502 69.5943 175.505 70.0209C175.508 70.3623 175.171 71.0048 174.496 71.9486C173.819 72.807 172.846 73.8384 171.575 75.0426C170.389 76.2462 169.67 77.0197 169.416 77.3629C168.146 78.6525 166.043 82.7644 163.109 89.6987C160.259 96.547 158.708 100.228 158.456 100.742C158.458 101.083 158.545 101.253 158.715 101.252C158.971 101.25 159.142 101.206 159.226 101.12L173.494 91.9247L173.634 93.5877C172.615 94.1927 170.916 95.2721 168.538 96.8261C166.161 98.38 164.462 99.4595 163.443 100.064C162.508 100.669 161.107 101.575 159.239 102.784C157.37 103.908 155.925 104.729 154.905 105.249C153.885 105.768 152.695 106.375 151.335 107.068C147.844 108.118 145.629 108.647 144.691 108.654C144.605 108.654 144.563 108.655 144.563 108.655C142.259 108.672 140.376 108.003 138.915 106.649C137.454 105.295 136.717 103.721 136.704 101.93C136.69 100.138 137.276 98.5971 138.461 97.3082C139.731 96.0186 141.22 95.3674 142.927 95.3546C144.633 95.3417 145.492 96.018 145.502 97.3833C145.508 98.1512 145.214 98.8788 144.622 99.5659C144.115 100.252 143.435 100.599 142.582 100.605C141.814 100.611 141.342 100.231 141.165 99.4639C141.074 98.6966 140.858 98.3142 140.517 98.3168C139.919 98.3212 139.41 98.6238 138.988 99.2243C138.651 99.8242 138.486 100.679 138.495 101.788C138.503 102.897 139.023 104.003 140.056 105.104C141.087 106.121 142.542 106.622 144.419 106.608C146.296 106.594 148.041 105.898 149.652 104.52C151.348 103.142 152.491 101.939 153.081 100.91C153.67 99.8819 154.929 97.0137 156.856 92.3058C158.783 87.5125 160.802 83.7425 162.915 80.9959L163.167 80.482C163.167 80.3966 163.038 80.3549 162.782 80.3569C162.1 80.362 156.45 83.7326 145.834 90.4686L140.611 93.8359ZM186.41 93.4916C185.985 93.7508 185.476 94.096 184.882 94.5271L184.486 92.9941C194.082 86.7778 201.897 81.9402 207.93 78.4814L211.37 76.4075C212.642 75.3739 214.041 74.1687 215.567 72.7919C218.79 70.2076 220.488 68.9574 220.659 69.0415C221.086 69.0383 221.301 69.25 221.304 69.6766C221.306 70.018 220.97 70.6605 220.294 71.6043C219.618 72.4627 218.644 73.4941 217.373 74.6983C216.188 75.9019 215.468 76.6754 215.215 77.0186C213.944 78.3082 211.842 82.4201 208.907 89.3544C206.057 96.2027 204.506 99.8838 204.254 100.398C204.257 100.739 204.343 100.909 204.514 100.908C204.77 100.906 204.94 100.862 205.025 100.776L219.292 91.5804L219.433 93.2434C218.413 93.8484 216.715 94.9279 214.337 96.4818C211.959 98.0357 210.261 99.1152 209.241 99.7202C208.307 100.325 206.906 101.231 205.038 102.44C203.169 103.563 201.724 104.385 200.704 104.904C199.684 105.424 198.494 106.03 197.134 106.723C193.643 107.774 191.428 108.302 190.489 108.309C190.404 108.31 190.361 108.31 190.361 108.31C188.057 108.328 186.175 107.659 184.714 106.305C183.253 104.95 182.516 103.377 182.503 101.585C182.489 99.7933 183.075 98.2528 184.26 96.9639C185.53 95.6743 187.019 95.0231 188.725 95.0103C190.432 94.9974 191.29 95.6737 191.301 97.039C191.306 97.8069 191.013 98.5345 190.421 99.2216C189.914 99.9081 189.234 100.255 188.381 100.261C187.613 100.267 187.141 99.8863 186.964 99.1196C186.873 98.3523 186.657 97.9699 186.315 97.9725C185.718 97.977 185.208 98.2795 184.786 98.88C184.449 99.4799 184.285 100.334 184.294 101.444C184.302 102.553 184.822 103.659 185.854 104.76C186.886 105.776 188.341 106.277 190.218 106.263C192.095 106.249 193.839 105.553 195.45 104.176C197.147 102.798 198.29 101.595 198.879 100.566C199.469 99.5376 200.727 96.6694 202.655 91.9615C204.581 87.1682 206.601 83.3982 208.714 80.6516L208.966 80.1377C208.965 80.0524 208.837 80.0107 208.581 80.0126C207.898 80.0177 202.249 83.3883 191.633 90.1243L186.41 93.4916ZM232.209 93.1473C231.784 93.4065 231.274 93.7517 230.68 94.1829L230.285 92.6498C239.881 86.4335 247.695 81.5959 253.728 78.1371L257.169 76.0632C258.441 75.0296 259.84 73.8244 261.366 72.4476C264.589 69.8633 266.286 68.6131 266.458 68.6972C266.884 68.694 267.099 68.9057 267.102 69.3324C267.105 69.6737 266.769 70.3162 266.093 71.26C265.417 72.1184 264.443 73.1498 263.172 74.354C261.986 75.5577 261.267 76.3311 261.013 76.6743C259.743 77.9639 257.641 82.0758 254.706 89.0101C251.856 95.8584 250.305 99.5395 250.053 100.053C250.055 100.395 250.142 100.565 250.313 100.563C250.569 100.562 250.739 100.518 250.824 100.432L265.091 91.2361L265.232 92.8991C264.212 93.5041 262.513 94.5836 260.136 96.1375C257.758 97.6914 256.059 98.7709 255.04 99.3759C254.106 99.9803 252.705 100.887 250.836 102.096C248.967 103.219 247.523 104.041 246.503 104.56C245.483 105.08 244.292 105.686 242.932 106.379C239.441 107.429 237.227 107.958 236.288 107.965C236.203 107.966 236.16 107.966 236.16 107.966C233.856 107.983 231.974 107.315 230.513 105.96C229.052 104.606 228.315 103.033 228.301 101.241C228.288 99.449 228.874 97.9085 230.059 96.6196C231.329 95.33 232.817 94.6788 234.524 94.666C236.231 94.6531 237.089 95.3294 237.099 96.6947C237.105 97.4627 236.812 98.1902 236.22 98.8773C235.713 99.5638 235.033 99.9103 234.179 99.9167C233.411 99.9225 232.939 99.542 232.763 98.7753C232.672 98.008 232.456 97.6256 232.114 97.6282C231.517 97.6327 231.007 97.9352 230.585 98.5357C230.248 99.1356 230.084 99.9902 230.092 101.099C230.101 102.209 230.621 103.314 231.653 104.416C232.685 105.432 234.139 105.933 236.017 105.919C237.894 105.905 239.638 105.209 241.249 103.832C242.945 102.454 244.088 101.25 244.678 100.222C245.268 99.1933 246.526 96.3251 248.453 91.6172C250.38 86.8239 252.4 83.0539 254.513 80.3073L254.765 79.7934C254.764 79.7081 254.636 79.6664 254.38 79.6683C253.697 79.6734 248.048 83.044 237.431 89.78L232.209 93.1473ZM305.308 63.541C303.857 63.5519 303.127 62.9174 303.118 61.6374C303.107 60.2721 303.738 58.9873 305.009 57.7831C306.28 56.5788 307.342 55.9735 308.195 55.9671C309.134 55.96 309.818 56.2109 310.249 56.7197C310.765 57.2278 311.025 57.8232 311.03 58.5058C311.035 59.1885 310.446 60.2169 309.261 61.5912C308.076 62.8802 306.759 63.5301 305.308 63.541ZM273.229 104.231C274.152 102.091 277.87 97.1989 284.383 89.555C290.982 81.9105 295.975 76.3688 299.362 72.93C299.869 72.2435 300.122 71.7722 300.12 71.5162C300.117 71.1749 299.774 70.9641 299.091 70.8839L296.145 70.6501C295.463 70.6552 294.825 71.0013 294.233 71.6885C288.475 77.6199 283.019 84.1038 277.867 91.1401C272.799 98.0903 270.271 102.419 270.284 104.125C270.296 105.747 270.814 106.554 271.838 106.546C273.204 106.536 275.969 105.405 280.133 103.155C284.297 100.82 288.12 98.4872 291.601 96.157L296.823 92.6616L296.682 90.9986C283.012 100.147 275.409 104.727 273.873 104.738C273.446 104.742 273.232 104.573 273.229 104.231ZM335.675 77.1371L335.674 77.0091C333.974 77.8752 332.112 79.9373 330.088 83.1953C328.064 86.3679 326.89 89.1075 326.566 91.414C332.662 85.0533 335.699 80.2943 335.675 77.1371ZM308.613 104.093C311.856 104.069 317.078 100.616 324.28 93.7352L324.275 93.0953C324.255 90.45 325.51 87.1978 328.041 83.3387C330.657 79.3936 333.028 76.8583 335.152 75.733C334.895 75.4789 334.552 75.3535 334.126 75.3567C330.968 75.3804 325.748 79.0464 318.464 86.3547C311.265 93.6624 307.681 99.3215 307.711 103.332C307.715 103.844 308.016 104.098 308.613 104.093ZM304.632 102.331C304.583 95.9314 308.205 89.5466 315.496 83.177C322.872 76.7213 328.991 73.4752 333.855 73.4387C336.244 73.4207 337.447 74.4784 337.463 76.6116C337.509 82.6701 334.312 88.753 327.872 94.8603C328.385 95.0271 328.898 95.1086 329.41 95.1047C331.799 95.0867 335.244 93.5675 339.744 90.5469L340.394 91.822C334.96 95.5323 330.835 97.3981 328.019 97.4192C326.91 97.4276 326.098 97.2203 325.583 96.7975C322.275 99.5531 318.793 101.798 315.137 103.532C311.481 105.266 308.799 106.14 307.092 106.153C305.471 106.165 304.651 104.891 304.632 102.331ZM350.949 93.2787L350.553 91.7457L354.757 89.026C361.125 84.7113 365.113 81.6946 366.721 79.9758C368.329 78.1717 369.302 77.055 369.64 76.6258C371.838 73.7932 373.063 72.2052 373.316 71.862C374.343 72.1956 374.863 73.2157 374.876 74.9224C373.188 77.4098 370.906 80.4137 368.031 83.9341C365.155 87.3691 362.788 90.2457 360.928 92.5637C359.067 94.7964 358.138 96.0834 358.141 96.4248C358.143 96.7661 358.187 96.9364 358.273 96.9358C358.443 96.9345 359.08 96.503 360.183 95.6414C361.37 94.6938 364.511 92.4088 369.604 88.7864C379.875 81.541 386.411 76.969 389.213 75.0706C392.014 73.0868 393.799 72.092 394.567 72.0863C395.42 72.0798 395.853 72.9299 395.866 74.6366C395.878 76.2578 394.617 78.7421 392.082 82.0892C389.547 85.4364 386.754 88.5294 383.703 91.3685C375.568 98.9392 371.503 103.109 371.509 103.876C371.51 103.962 371.681 104.003 372.022 104.001C373.046 103.993 378.781 100.579 389.226 93.759L394.447 90.2637L394.588 91.9267C380.918 101.16 372.59 105.788 369.604 105.811C369.092 105.815 368.834 105.561 368.83 105.049C368.806 101.891 370.741 98.1648 374.634 93.8687C378.612 89.4867 382.55 85.5743 386.45 82.1316C390.349 78.6035 392.294 76.2848 392.286 75.1755C392.285 75.0048 392.199 74.9201 392.028 74.9214C389.562 76.1347 383.831 79.9752 374.834 86.443C365.922 92.8248 360.702 96.5762 359.174 97.697C355.186 100.714 353.065 102.308 352.81 102.481C352.64 102.568 352.217 102.997 351.54 103.771C350.016 105.403 348.614 106.225 347.334 106.234C345.285 106.079 344.217 105.959 344.131 105.874C344.045 105.79 344.002 105.705 344.001 105.619C344.001 105.534 344.72 104.718 346.159 103.171C347.513 101.71 348.868 100.249 350.222 98.7884C354.707 93.7198 357.795 90.1125 359.485 87.9664L350.949 93.2787Z" fill="#E84721"/>
</svg>
