<svg width="266" height="111" viewBox="0 0 266 111" fill="none" xmlns="http://www.w3.org/2000/svg">
<path d="M42.6091 49.4276C38.979 54.6603 33.0899 60.2088 24.9417 66.0728C16.8789 71.9363 10.1596 74.8882 4.78374 74.9286C3.33312 74.9395 2.26359 74.5636 1.57517 73.8007C0.971443 72.9519 0.662521 71.5888 0.648409 69.7116C0.613128 65.0184 2.40348 59.1167 6.01947 52.0067C9.72015 44.8107 14.4034 37.7779 20.0693 30.9085C25.7351 24.039 32.5603 18.1422 40.5449 13.2181C48.6141 8.20792 56.4459 5.67431 64.0404 5.61722C69.2456 5.57809 71.8722 8.75843 71.9203 15.1583C71.9524 19.4248 69.7822 25.884 65.4098 34.5357C61.0374 43.1875 56.1931 51.5015 50.8769 59.4777C45.5601 67.3686 40.7074 74.5732 36.319 81.0917C31.9299 87.5249 29.7366 90.9122 29.7392 91.2535C31.7691 88.8488 36.5948 83.7351 44.2163 75.9122C51.923 68.0887 58.7418 61.3386 64.6726 55.6619C70.6888 49.9845 77.6817 43.7024 85.6515 36.8157C93.706 29.8429 101.171 23.856 108.045 18.8548C114.92 13.8536 121.843 9.66282 128.815 6.28231C135.787 2.81647 141.662 1.06559 146.44 1.02967C148.062 1.01748 148.875 1.35271 148.88 2.03536C148.886 2.88867 146.512 4.86924 141.756 7.97707C137.086 10.9989 134.58 12.5112 134.238 12.5137C133.897 12.5163 133.725 12.3896 133.723 12.1336C133.721 11.8776 134.017 11.406 134.609 10.7189C135.286 10.0311 135.624 9.60188 135.623 9.43122C135.622 9.26056 135.493 9.17619 135.237 9.17811C130.032 9.21724 120.299 14.3252 106.04 24.502C91.7796 34.6789 76.3023 47.5102 59.6076 62.9962C42.9982 78.4815 29.0706 93.1359 17.8249 106.96C16.0496 109.192 13.1994 110.322 9.27416 110.352C8.59151 110.357 8.24922 110.232 8.2473 109.976C8.24537 109.72 8.75287 109.118 9.76978 108.172C10.7867 107.226 13.6187 103.663 18.2657 97.4839C22.9127 91.3048 25.9105 87.1008 27.2591 84.872C28.6924 82.5571 31.9831 77.5829 37.1312 69.9493C42.2793 62.3157 46.6665 55.6266 50.2927 49.8818C54.0043 44.1364 57.7939 37.4091 61.6614 29.6998C65.6142 21.9899 67.9993 15.7424 68.8167 10.9575C68.6242 8.0575 66.9493 6.61938 63.7921 6.64312C59.1842 6.67775 53.2714 9.06894 46.0535 13.8167C38.921 18.5637 32.1365 24.2042 25.7001 30.7381C19.2637 37.272 13.7269 44.2685 9.08946 51.7276C4.45142 59.1013 2.15037 65.1775 2.18629 69.956C2.20489 72.4306 3.28083 73.6599 5.4141 73.6439C10.4486 73.606 16.2332 71.1731 22.7677 66.3452C29.387 61.4313 35.6569 55.4533 41.5774 48.4113C42.0003 47.8961 42.3823 47.6372 42.7236 47.6347C43.065 47.6321 43.2369 47.8015 43.2395 48.1428C43.242 48.4841 43.0319 48.9124 42.6091 49.4276ZM97.4889 58.1033C96.0383 58.1142 95.3081 57.4796 95.2985 56.1997C95.2883 54.8344 95.9186 53.5496 97.1896 52.3454C98.4606 51.1411 99.5227 50.5358 100.376 50.5293C101.315 50.5223 101.999 50.7732 102.43 51.2819C102.946 51.7901 103.206 52.3855 103.211 53.0681C103.216 53.7508 102.627 54.7792 101.442 56.1535C100.257 57.4424 98.9395 58.0924 97.4889 58.1033ZM65.4099 98.7936C66.3325 96.6532 70.0505 91.7611 76.5638 84.1173C83.1626 76.4728 88.1557 70.9311 91.5433 67.4922C92.0502 66.8057 92.3026 66.3345 92.3007 66.0785C92.2981 65.7372 91.9552 65.5264 91.2719 65.4462L88.3261 65.2123C87.6434 65.2175 87.006 65.5636 86.4138 66.2508C80.6556 72.1822 75.2002 78.6661 70.0476 85.7023C64.9797 92.6526 62.4522 96.9811 62.465 98.6877C62.4772 100.309 62.9952 101.116 64.0192 101.108C65.3845 101.098 68.1494 99.9677 72.314 97.7176C76.4779 95.3823 80.3004 93.0495 83.7817 90.7192L89.0036 87.2239L88.863 85.5609C75.1928 94.7092 67.5896 99.2892 66.0537 99.3007C65.627 99.3039 65.4124 99.1349 65.4099 98.7936ZM101.987 87.1263C101.562 87.3855 101.053 87.7306 100.459 88.1618L100.063 86.6287C109.66 80.4124 117.474 75.5749 123.507 72.1161L126.947 70.0422C128.22 69.0086 129.619 67.8033 131.144 66.4265C134.368 63.8422 136.065 62.5921 136.236 62.6761C136.663 62.6729 136.878 62.8846 136.881 63.3113C136.884 63.6526 136.547 64.2952 135.872 65.2389C135.195 66.0974 134.222 67.1287 132.951 68.333C131.765 69.5366 131.046 70.31 130.792 70.6533C129.522 71.9429 127.419 76.0548 124.485 82.989C121.635 89.8373 120.084 93.5184 119.832 94.0323C119.834 94.3737 119.921 94.5437 120.091 94.5424C120.347 94.5405 120.518 94.4965 120.602 94.4105L134.87 85.215L135.01 86.878C133.991 87.483 132.292 88.5625 129.914 90.1164C127.537 91.6703 125.838 92.7498 124.819 93.3548C123.884 93.9592 122.483 94.8658 120.615 96.0745C118.746 97.1979 117.302 98.0195 116.281 98.5391C115.261 99.0588 114.071 99.6651 112.711 100.358C109.22 101.408 107.005 101.937 106.067 101.944C105.981 101.945 105.939 101.945 105.939 101.945C103.635 101.962 101.752 101.294 100.291 99.9394C98.8306 98.585 98.0934 97.0118 98.0799 95.2199C98.0664 93.4279 98.6522 91.8875 99.8372 90.5985C101.108 89.3089 102.596 88.6577 104.303 88.6449C106.009 88.6321 106.868 89.3083 106.878 90.6736C106.884 91.4416 106.591 92.1691 105.998 92.8563C105.492 93.5428 104.811 93.8892 103.958 93.8956C103.19 93.9014 102.718 93.521 102.542 92.7543C102.45 91.9869 102.234 91.6045 101.893 91.6071C101.296 91.6116 100.786 91.9141 100.364 92.5146C100.027 93.1145 99.8626 93.9691 99.8709 95.0784C99.8792 96.1877 100.4 97.2932 101.432 98.3948C102.464 99.411 103.918 99.9121 105.795 99.898C107.673 99.8839 109.417 99.1881 111.028 97.8106C112.724 96.4325 113.867 95.2292 114.457 94.2007C115.046 93.1723 116.305 90.3041 118.232 85.5961C120.159 80.8028 122.179 77.0329 124.291 74.2862L124.543 73.7723C124.543 73.687 124.414 73.6453 124.158 73.6472C123.476 73.6524 117.826 77.0229 107.21 83.7589L101.987 87.1263ZM175.087 57.5199C173.636 57.5308 172.906 56.8963 172.896 55.6163C172.886 54.251 173.516 52.9663 174.787 51.762C176.058 50.5578 177.121 49.9524 177.974 49.946C178.912 49.939 179.597 50.1898 180.028 50.6986C180.543 51.2067 180.804 51.8021 180.809 52.4848C180.814 53.1674 180.225 54.1959 179.04 55.5702C177.855 56.8591 176.537 57.509 175.087 57.5199ZM143.008 98.2102C143.93 96.0699 147.648 91.1778 154.162 83.534C160.76 75.8895 165.754 70.3478 169.141 66.9089C169.648 66.2224 169.9 65.7511 169.898 65.4952C169.896 65.1538 169.553 64.9431 168.87 64.8629L165.924 64.629C165.241 64.6341 164.604 64.9803 164.012 65.6674C158.253 71.5989 152.798 78.0827 147.645 85.119C142.577 92.0693 140.05 96.3977 140.063 98.1044C140.075 99.7256 140.593 100.532 141.617 100.525C142.982 100.514 145.747 99.3843 149.912 97.1343C154.076 94.7989 157.898 92.4661 161.379 90.1359L166.601 86.6405L166.461 84.9775C152.791 94.1259 145.187 98.7059 143.651 98.7174C143.225 98.7206 143.01 98.5515 143.008 98.2102ZM205.454 71.116L205.453 70.988C203.753 71.8542 201.891 73.9162 199.867 77.1742C197.843 80.3468 196.669 83.0864 196.345 85.3929C202.441 79.0322 205.477 74.2733 205.454 71.116ZM178.392 98.0722C181.634 98.0479 186.856 94.5952 194.058 87.7142L194.053 87.0742C194.034 84.4289 195.289 81.1767 197.82 77.3176C200.436 73.3725 202.806 70.8373 204.931 69.7119C204.673 69.4579 204.331 69.3324 203.904 69.3356C200.747 69.3594 195.526 73.0254 188.243 80.3337C181.044 87.6413 177.46 93.3004 177.49 97.311C177.494 97.823 177.794 98.0767 178.392 98.0722ZM174.41 96.3101C174.362 89.9103 177.984 83.5256 185.275 77.1559C192.65 70.7003 198.77 67.4542 203.634 67.4176C206.023 67.3996 207.226 68.4573 207.242 70.5906C207.287 76.6491 204.09 82.7319 197.651 88.8392C198.164 89.006 198.677 89.0875 199.189 89.0836C201.578 89.0657 205.023 87.5464 209.523 84.5258L210.172 85.801C204.739 89.5113 200.614 91.377 197.798 91.3982C196.689 91.4065 195.876 91.1993 195.361 90.7765C192.054 93.5321 188.572 95.777 184.916 97.5112C181.259 99.2454 178.578 100.119 176.871 100.132C175.25 100.144 174.43 98.87 174.41 96.3101ZM220.728 87.2577L220.332 85.7246L224.536 83.0049C230.903 78.6903 234.892 75.6735 236.5 73.9547C238.108 72.1506 239.081 71.0339 239.419 70.6047C241.616 67.7721 242.842 66.1842 243.095 65.8409C244.122 66.1746 244.641 67.1947 244.654 68.9013C242.966 71.3887 240.685 74.3926 237.81 77.913C234.934 81.348 232.566 84.2246 230.706 86.5426C228.846 88.7754 227.917 90.0624 227.919 90.4037C227.922 90.745 227.966 90.9154 228.051 90.9147C228.222 90.9134 228.859 90.482 229.962 89.6203C231.149 88.6727 234.289 86.3877 239.382 82.7653C249.653 75.5199 256.19 70.948 258.992 69.0495C261.793 67.0657 263.577 66.071 264.345 66.0652C265.199 66.0588 265.632 66.9089 265.645 68.6155C265.657 70.2368 264.395 72.721 261.861 76.0681C259.326 79.4153 256.533 82.5084 253.482 85.3474C245.347 92.9181 241.282 97.0874 241.288 97.8554C241.288 97.9407 241.459 97.9821 241.801 97.9796C242.825 97.9719 248.559 94.558 259.004 87.738L264.226 84.2426L264.367 85.9056C250.697 95.1393 242.369 99.7673 239.382 99.7898C238.87 99.7936 238.612 99.5396 238.609 99.0276C238.585 95.8703 240.519 92.1437 244.413 87.8476C248.39 83.4656 252.329 79.5532 256.229 76.1105C260.128 72.5824 262.073 70.2637 262.065 69.1544C262.063 68.9838 261.977 68.8991 261.807 68.9004C259.341 70.1136 253.61 73.9541 244.613 80.4219C235.701 86.8038 230.481 90.5551 228.953 91.676C224.965 94.6927 222.843 96.2874 222.589 96.4599C222.419 96.5466 221.995 96.9764 221.318 97.7495C219.795 99.3824 218.393 100.204 217.113 100.213C215.064 100.058 213.996 99.938 213.91 99.8533C213.824 99.7686 213.781 99.6836 213.78 99.5982C213.779 99.5129 214.499 98.6968 215.938 97.15C217.292 95.6891 218.647 94.2282 220.001 92.7673C224.486 87.6988 227.573 84.0915 229.264 81.9454L220.728 87.2577Z" fill="#E84721"/>
</svg>
